<svg xmlns="http://www.w3.org/2000/svg" viewBox="0 0 64 64" width="64" height="64">
  <defs>
    <linearGradient id="g" x1="0" y1="0" x2="1" y2="1">
      <stop offset="0" stop-color="#7C3AED"/>
      <stop offset="1" stop-color="#E0218A"/>
    </linearGradient>
  </defs>
  <rect width="64" height="64" rx="16" fill="url(#g)"/>
  <path d="M41 24.5c-2.2-2.4-5.3-3.8-8.9-3.8-7 0-12.1 5.2-12.1 12s5 12 12.4 12c3.4 0 6.4-1.2 8.6-3.4V31.8H31.4v5.1h4.4v3.2c-1 .7-2.3 1-3.7 1-3.9 0-6.6-2.8-6.6-6.4s2.6-6.4 6.3-6.4c2 0 3.6.8 4.9 2.2z" fill="#fff"/>
</svg>
